HIERARCHY
ROOT Hips
{
 OFFSET 0.000000 0.000000 0.000000
 CHANNELS 6 Xposition Yposition Zposition Yrotation Xrotation Zrotation
 JOINT Chest
 {
  OFFSET 0.000000 9.585900 0.002600
  CHANNELS 3 Yrotation Xrotation Zrotation
  JOINT Chest2
  {
   OFFSET 0.000000 9.601200 -0.005300
   CHANNELS 3 Yrotation Xrotation Zrotation
   JOINT Chest3
   {
    OFFSET 0.000000 9.561800 0.000000
    CHANNELS 3 Yrotation Xrotation Zrotation
    JOINT Chest4
    {
     OFFSET 0.000000 9.552100 0.000000
     CHANNELS 3 Yrotation Xrotation Zrotation
     JOINT Neck
     {
      OFFSET 0.000000 14.453000 0.000000
      CHANNELS 3 Yrotation Xrotation Zrotation
      JOINT Head
      {
       OFFSET 0.000000 8.936500 -0.011300
       CHANNELS 3 Yrotation Xrotation Zrotation
       End Site
       {
        OFFSET 0.000000 17.073600 -0.006000
       }
      }
     }
     JOINT RightCollar
     {
      OFFSET -2.921100 9.558500 0.000000
      CHANNELS 3 Yrotation Xrotation Zrotation
      JOINT RightShoulder
      {
       OFFSET -13.519700 0.000000 0.000000
       CHANNELS 3 Yrotation Xrotation Zrotation
       JOINT RightElbow
       {
        OFFSET 0.000000 -29.696600 0.000000
        CHANNELS 3 Yrotation Xrotation Zrotation
        JOINT RightWrist
        {
         OFFSET 0.000000 -24.004700 0.000000
         CHANNELS 3 Yrotation Xrotation Zrotation
         End Site
         {
          OFFSET 0.000000 -17.728500 0.000000
         }
        }
       }
      }
     }
     JOINT LeftCollar
     {
      OFFSET 2.921100 9.558500 0.000000
      CHANNELS 3 Yrotation Xrotation Zrotation
      JOINT LeftShoulder
      {
       OFFSET 13.519700 0.000000 0.000000
       CHANNELS 3 Yrotation Xrotation Zrotation
       JOINT LeftElbow
       {
        OFFSET 0.000000 -29.696600 0.000000
        CHANNELS 3 Yrotation Xrotation Zrotation
        JOINT LeftWrist
        {
         OFFSET 0.000000 -24.004700 0.000000
         CHANNELS 3 Yrotation Xrotation Zrotation
         End Site
         {
          OFFSET 0.000000 -17.728500 0.000000
         }
        }
       }
      }
     }
    }
   }
  }
 }
 JOINT RightHip
 {
  OFFSET -7.771700 -0.012900 -0.001300
  CHANNELS 3 Yrotation Xrotation Zrotation
  JOINT RightKnee
  {
   OFFSET 0.000000 -40.869800 0.001200
   CHANNELS 3 Yrotation Xrotation Zrotation
   JOINT RightAnkle
   {
    OFFSET 0.000000 -39.717900 0.002100
    CHANNELS 3 Yrotation Xrotation Zrotation
    JOINT RightToe
    {
     OFFSET 0.000000 -4.965400 11.033500
     CHANNELS 3 Yrotation Xrotation Zrotation
     End Site
     {
      OFFSET 0.000000 -1.423100 5.872300
     }
    }
   }
  }
 }
 JOINT LeftHip
 {
  OFFSET 7.771700 -0.012900 -0.001300
  CHANNELS 3 Yrotation Xrotation Zrotation
  JOINT LeftKnee
  {
   OFFSET 0.000000 -40.869800 0.001200
   CHANNELS 3 Yrotation Xrotation Zrotation
   JOINT LeftAnkle
   {
    OFFSET 0.000000 -39.717900 0.002100
    CHANNELS 3 Yrotation Xrotation Zrotation
    JOINT LeftToe
    {
     OFFSET 0.000000 -4.965400 11.033500
     CHANNELS 3 Yrotation Xrotation Zrotation
     End Site
     {
      OFFSET 0.000000 -1.423100 5.872300
     }
    }
   }
  }
 }
}
MOTION
Frames: 16
Frame Time: 0.008333
0.000000 85.388000 0.000000 0.000000 -5.767877 0.000000 0.000000 11.653817 0.000000 0.000000 -5.885947 0.000000 0.000000 -0.000000 0.000000 0.000000 -0.000000 0.000000 0.000000 12.528835 0.000000 0.000000 0.711642 0.000000 0.000000 -0.000000 0.000000 0.000000 0.000000 -90.000000 0.000000 -2.309062 0.000000 0.000000 2.309062 0.000000 0.000000 -0.000000 0.000000 0.000000 -0.000000 90.000000 0.000000 -2.309062 0.000000 0.000000 2.309062 0.000000 0.000000 8.520406 0.000000 0.000000 1.905762 0.000000 -0.000000 -4.658285 0.000000 0.000000 -0.000000 0.000000 0.000000 8.520406 0.000000 0.000000 1.905762 0.000000 -0.000000 -4.658285 0.000000 0.000000 -0.000000 0.000000
-31.191779 50.628537 6.161987 163.864528 -8.943473 -0.544396 3.761772 7.764502 0.448071 0.191858 0.406081 -0.026225 0.327629 0.703078 -0.051333 3.436676 7.350561 -0.275722 2.309771 16.976936 -0.529825 4.467149 -4.201640 -1.746523 2.581025 6.771334 0.897611 -7.844846 -15.237173 -6.942415 -47.495564 -69.275933 67.947758 -3.193262 1.932210 -29.706357 -5.397281 3.782931 0.139837 21.822776 -7.031351 1.236884 52.860724 -69.752070 -76.314759 0.565486 9.823825 11.081856 -4.018568 -71.708826 -0.050154 -118.736476 83.599919 -117.225417 -3.040001 -13.918263 -0.098302 -0.283537 0.744679 -0.132334 -12.911822 -74.791802 28.462007 107.168410 78.380451 103.275219 -16.031279 -20.485206 -0.104373 -0.254154 -1.081664 -0.125138
-31.189550 50.627762 6.161523 163.873564 -8.944726 -0.555882 3.754128 7.767958 0.463669 0.190337 0.404578 -0.027786 0.332221 0.705187 -0.045579 3.428114 7.344153 -0.280388 2.323757 16.992248 -0.519926 4.464775 -4.197731 -1.745609 2.584172 6.778747 0.894489 -7.846236 -15.230699 -6.939018 -47.453956 -69.258428 67.917431 -3.192400 1.929771 -29.708309 -5.399093 3.793557 0.139557 21.807162 -7.010336 1.246690 52.888672 -69.756114 -76.331398 0.549908 9.851847 11.091372 -4.051262 -71.707600 -0.022536 -118.766912 83.595003 -117.256132 -3.032301 -13.915557 -0.093099 -0.290895 0.739067 -0.135457 -12.967846 -74.788490 28.509440 107.159227 78.370542 103.255086 -15.974810 -20.476069 -0.112007 -0.292421 -1.078222 -0.130536
-31.190119 50.626273 6.164821 163.888989 -8.919165 -0.558205 3.736135 7.743023 0.462760 0.186373 0.404305 -0.026317 0.337794 0.705003 -0.047318 3.418644 7.339219 -0.277367 2.343003 17.003436 -0.496220 4.502754 -4.166126 -1.719269 2.592542 6.798266 0.898906 -7.836543 -15.208562 -6.938717 -47.465150 -69.269460 67.931618 -3.200341 1.963694 -29.704316 -5.397762 3.812709 0.141847 21.789134 -7.003581 1.252298 52.707939 -69.770215 -76.144855 0.576062 9.790381 11.095836 -4.064888 -71.734489 -0.022449 -118.767828 83.593183 -117.255961 -3.028543 -13.916821 -0.091418 -0.293293 0.741427 -0.136153 -13.009733 -74.815019 28.539128 107.098334 78.360278 103.190176 -15.980034 -20.453299 -0.111456 -0.293946 -1.078396 -0.131868
-31.190440 50.625266 6.165941 163.890194 -8.906945 -0.555924 3.730677 7.731129 0.459565 0.185325 0.404004 -0.026254 0.333993 0.704080 -0.046256 3.417987 7.334866 -0.274731 2.356154 17.011014 -0.487607 4.523949 -4.152013 -1.707527 2.598047 6.813812 0.904051 -7.825455 -15.206514 -6.949356 -47.352162 -69.240737 67.838950 -3.188920 1.934423 -29.716895 -5.398781 3.833385 0.145159 21.769260 -7.002729 1.256460 52.673623 -69.773445 -76.090377 0.582853 9.777617 11.099721 -4.058898 -71.746806 -0.030165 -118.787757 83.597316 -117.276979 -3.024625 -13.921097 -0.088499 -0.301303 0.746137 -0.138980 -13.010883 -74.828750 28.546084 107.081150 78.363168 103.172638 -16.000782 -20.436427 -0.108094 -0.267757 -1.079207 -0.127841
-31.190209 50.624736 6.165455 163.885785 -8.905263 -0.553270 3.729380 7.729798 0.457366 0.189933 0.402453 -0.022186 0.328627 0.704429 -0.049985 3.419235 7.330620 -0.270938 2.368213 17.015095 -0.478451 4.544057 -4.136943 -1.696955 2.593107 6.830867 0.911189 -7.806924 -15.208946 -6.962801 -47.325335 -69.236947 67.811430 -3.186865 1.929107 -29.718475 -5.407010 3.856212 0.145833 21.753627 -7.007775 1.262192 52.693635 -69.769775 -76.087031 0.570434 9.802115 11.105021 -4.050075 -71.748432 -0.034566 -118.748434 83.587400 -117.239739 -3.010043 -13.924510 -0.086850 -0.304710 0.749303 -0.139579 -12.997130 -74.831572 28.540985 107.078180 78.366063 103.168873 -15.998920 -20.416585 -0.113511 -0.284737 -1.084708 -0.123844
-31.191149 50.624231 6.166238 163.891033 -8.894270 -0.547780 3.725251 7.718137 0.459374 0.188147 0.400301 -0.024213 0.329211 0.705856 -0.049709 3.416093 7.330886 -0.275801 2.374094 17.015358 -0.473369 4.562559 -4.126558 -1.686955 2.585592 6.846540 0.921350 -7.786756 -15.214090 -6.976223 -47.278235 -69.231280 67.761053 -3.185478 1.916654 -29.716523 -5.411188 3.864635 0.143937 21.745276 -7.009452 1.268422 52.677587 -69.768624 -76.063335 0.548381 9.851316 11.107414 -4.049899 -71.760983 -0.038696 -118.735033 83.582800 -117.230908 -3.012513 -13.926772 -0.087129 -0.297864 0.751382 -0.136562 -12.940045 -74.845207 28.483211 107.015614 78.371448 103.119024 -16.022986 -20.410093 -0.113949 -0.285344 -1.072074 -0.121241
-31.191357 50.624043 6.167043 163.894161 -8.884275 -0.546813 3.721379 7.706801 0.459327 0.187439 0.396742 -0.022021 0.327327 0.698148 -0.044880 3.414697 7.328361 -0.279222 2.381892 17.028006 -0.471785 4.565491 -4.120333 -1.686547 2.581735 6.873339 0.927759 -7.767560 -15.215320 -6.989819 -47.214932 -69.220775 67.696426 -3.184954 1.910107 -29.723750 -5.413101 3.889426 0.137847 21.737089 -7.013610 1.273048 52.636012 -69.772759 -76.018845 0.547046 9.850521 11.101480 -4.087667 -71.771970 -0.006070 -118.725328 83.579892 -117.232382 -3.010229 -13.926911 -0.086713 -0.299764 0.750706 -0.137087 -12.926403 -74.857805 28.467156 106.980307 78.371318 103.091601 -16.032829 -20.397701 -0.118095 -0.283465 -1.073243 -0.118552
-31.191350 50.624209 6.167415 163.887716 -8.876841 -0.545755 3.727531 7.696133 0.463263 0.186722 0.396926 -0.024435 0.324980 0.692448 -0.043124 3.414877 7.307478 -0.272651 2.398333 17.050473 -0.466288 4.587209 -4.105164 -1.675813 2.566405 6.923473 0.935141 -7.736059 -15.224658 -7.009267 -47.180603 -69.212505 67.661473 -3.183386 1.910709 -29.730419 -5.416925 3.930773 0.126899 21.718809 -7.024370 1.281041 52.611145 -69.772624 -75.978147 0.554440 9.839712 11.098040 -4.096423 -71.778357 0.007138 -118.712387 83.581869 -117.223478 -3.003934 -13.928852 -0.090167 -0.302820 0.752997 -0.135760 -12.908247 -74.867963 28.455595 106.973901 78.373911 103.093222 -16.035580 -20.389101 -0.120464 -0.280702 -1.075140 -0.117745
-31.191940 50.624603 6.167348 163.888334 -8.870255 -0.542567 3.723867 7.682827 0.462814 0.187675 0.399907 -0.026181 0.324244 0.691633 -0.043302 3.415537 7.307599 -0.273206 2.412412 17.044932 -0.455107 4.655960 -4.077064 -1.646226 2.565462 6.931874 0.936409 -7.727949 -15.222069 -7.012858 -47.138708 -69.200339 67.623861 -3.176732 1.908927 -29.734039 -5.417952 3.940336 0.128257 21.705629 -7.034005 1.288598 52.585206 -69.778533 -75.953050 0.568970 9.836938 11.105979 -4.094545 -71.784450 0.004034 -118.685499 83.577398 -117.202308 -2.991850 -13.931460 -0.085111 -0.309899 0.754396 -0.139011 -12.889303 -74.877524 28.434890 106.959629 78.376292 103.086555 -16.043187 -20.380344 -0.123412 -0.290707 -1.063217 -0.119809
-31.192400 50.625350 6.166130 163.882319 -8.869926 -0.537960 3.724132 7.673616 0.465971 0.186737 0.397602 -0.025802 0.327542 0.698384 -0.049762 3.410948 7.291101 -0.270707 2.430378 17.056192 -0.446547 4.683335 -4.052183 -1.632444 2.575623 6.964260 0.945120 -7.724009 -15.228855 -7.025170 -47.100000 -69.187004 67.589798 -3.170499 1.909864 -29.741130 -5.407880 3.962896 0.120641 21.687035 -7.045344 1.313579 52.614075 -69.765016 -75.976050 0.572364 9.838796 11.101385 -4.083902 -71.783855 -0.000806 -118.673310 83.577000 -117.195528 -2.987277 -13.933105 -0.082506 -0.316265 0.755711 -0.140528 -12.871102 -74.878913 28.420990 106.962876 78.375942 103.097785 -16.066452 -20.374789 -0.126198 -0.277612 -1.067556 -0.117805
-31.191741 50.626252 6.165054 163.882833 -8.869982 -0.541421 3.723267 7.672218 0.471534 0.185942 0.397137 -0.024321 0.327211 0.693540 -0.047186 3.399193 7.273978 -0.264516 2.451788 17.076204 -0.442722 4.708402 -4.030180 -1.619563 2.587820 6.996245 0.940716 -7.717362 -15.224815 -7.036153 -47.107082 -69.185036 67.596242 -3.169772 1.916973 -29.749872 -5.388616 3.989136 0.109407 21.682324 -7.057873 1.314795 52.603393 -69.758366 -75.970128 0.570064 9.833756 11.107101 -4.094913 -71.780027 0.012117 -118.639072 83.573180 -117.166141 -2.976784 -13.937781 -0.076065 -0.324912 0.758817 -0.144426 -12.887981 -74.877278 28.435631 106.970356 78.377306 103.105020 -16.053018 -20.373950 -0.129011 -0.277772 -1.066685 -0.118977
-31.190363 50.627197 6.164410 163.880809 -8.868408 -0.549312 3.724861 7.669554 0.481153 0.186862 0.397683 -0.024574 0.323547 0.690036 -0.045165 3.401525 7.272425 -0.264996 2.477710 17.084017 -0.414486 4.711930 -4.017423 -1.621358 2.589288 7.009751 0.940410 -7.725258 -15.212644 -7.042492 -47.132708 -69.185403 67.635008 -3.184253 1.942906 -29.768055 -5.384133 3.993593 0.110848 21.685527 -7.070409 1.312400 52.577236 -69.752905 -75.952224 0.564619 9.803424 11.110469 -4.100220 -71.780412 0.028691 -118.617334 83.566938 -117.146527 -2.973537 -13.932159 -0.067079 -0.331184 0.752992 -0.146942 -12.924200 -74.875673 28.471962 106.975417 78.376835 103.104350 -16.018428 -20.373746 -0.131784 -0.260978 -1.063547 -0.118853
-31.190596 50.627952 6.164857 163.882161 -8.857816 -0.549874 3.724797 7.661513 0.483275 0.186099 0.396074 -0.025677 0.325695 0.690422 -0.041664 3.398513 7.270059 -0.268672 2.492699 17.090412 -0.397533 4.706450 -4.016739 -1.627272 2.587247 7.029050 0.953864 -7.721481 -15.227310 -7.057160 -47.115073 -69.176223 67.622563 -3.180612 1.935491 -29.771740 -5.382087 3.994502 0.112274 21.688340 -7.084369 1.311146 52.589076 -69.753459 -75.969039 0.571391 9.811074 11.113625 -4.087345 -71.790166 0.018264 -118.632475 83.569914 -117.156304 -2.984420 -13.933108 -0.066140 -0.325449 0.753076 -0.146388 -12.945108 -74.881422 28.490945 106.956240 78.376814 103.078212 -16.015899 -20.373808 -0.129485 -0.267376 -1.059558 -0.120519
-31.192431 50.628883 6.163765 163.877836 -8.854074 -0.537149 3.730317 7.661036 0.473562 0.185857 0.395295 -0.025474 0.323562 0.688847 -0.043414 3.399534 7.264168 -0.263348 2.502868 17.104745 -0.383591 4.728158 -4.002979 -1.612022 2.582817 7.040204 0.953781 -7.731618 -15.205667 -7.073505 -47.149469 -69.182847 67.676756 -3.183872 1.929180 -29.773584 -5.380328 4.000674 0.108842 21.687399 -7.094519 1.310388 52.633745 -69.756346 -76.014661 0.577098 9.823645 11.114350 -4.036479 -71.794323 -0.029011 -118.652404 83.573600 -117.172808 -2.994730 -13.936571 -0.067924 -0.317375 0.755407 -0.143225 -12.880877 -74.881094 28.436670 106.916673 78.384189 103.040551 -16.063683 -20.374897 -0.117973 -0.262424 -1.055929 -0.121513
-31.192871 50.629690 6.164042 163.877294 -8.845801 -0.534518 3.728264 7.662666 0.479551 0.189669 0.391373 -0.031564 0.323191 0.687732 -0.043190 3.398037 7.259212 -0.260791 2.511081 17.115906 -0.368243 4.761369 -3.970506 -1.575762 2.580973 7.042526 0.949421 -7.734975 -15.195897 -7.080200 -47.148130 -69.185238 67.676351 -3.169668 1.932662 -29.778947 -5.376525 4.003017 0.106199 21.683958 -7.098507 1.307390 52.738185 -69.761639 -76.108014 0.582591 9.834762 11.111271 -4.016310 -71.801872 -0.047516 -118.656100 83.575974 -117.171700 -2.997985 -13.938468 -0.070219 -0.315496 0.756870 -0.141233 -12.874284 -74.888042 28.432620 106.884006 78.382756 103.007797 -16.083204 -20.360835 -0.113498 -0.305375 -1.064662 -0.129191
